<svg width="32" height="32" viewBox="0 0 32 32" fill="none" xmlns="http://www.w3.org/2000/svg">
  <!-- Monochrome version for Safari pinned tabs -->
  <!-- Only strokes, no fills, black color -->
  <path d="M 10 9 Q 8 7 6 9 Q 6 11 8 13 L 10 15 L 12 13 Q 14 11 14 9 Q 14 7 12 9 Q 10 7 10 9 Z" 
        stroke="#000" 
        stroke-width="2" 
        fill="none"
        stroke-linecap="round" 
        stroke-linejoin="round"/>
  <path d="M 22 9 Q 24 7 26 9 Q 26 11 24 13 L 22 15 L 20 13 Q 18 11 18 9 Q 18 7 20 9 Q 22 7 22 9 Z" 
        stroke="#000" 
        stroke-width="2" 
        fill="none"
        stroke-linecap="round" 
        stroke-linejoin="round"/>
  <path d="M 14 11 Q 16 12 18 11" 
        stroke="#000" 
        stroke-width="1.5" 
        stroke-linecap="round" 
        fill="none"
        opacity="0.7"/>
</svg>
